<?xml version="1.0" encoding="UTF-8" standalone="no"?>
<svg viewBox="0 0 259 260" xmlns="http://www.w3.org/2000/svg">
  <g transform="translate(259,0) scale(-1,1)">

  <!-- Extracted black signature pen icon with transparent background -->
  <g fill="#000000">
    <path d="M 185.00,65.00 L 184.00,65.00 L 183.00,65.00 L 182.00,64.00 L 182.00,64.00 L 181.00,63.00 L 181.00,63.00 L 180.00,62.00 L 180.00,62.00 L 179.00,61.00 L 179.00,61.00 L 178.00,60.00 L 178.00,60.00 L 177.00,59.00 L 177.00,59.00 L 176.00,59.00 L 175.00,58.00 L 175.00,58.00 L 174.00,57.00 L 174.00,57.00 L 173.00,56.00 L 173.00,56.00 L 172.00,55.00 L 172.00,55.00 L 171.00,54.00 L 171.00,54.00 L 170.00,53.00 L 170.00,53.00 L 169.00,52.00 L 169.00,52.00 L 168.00,52.00 L 167.00,51.00 L 167.00,51.00 L 166.00,50.00 L 166.00,50.00 L 165.00,49.00 L 165.00,49.00 L 164.00,48.00 L 164.00,48.00 L 163.00,47.00 L 163.00,47.00 L 162.00,46.00 L 162.00,46.00 L 161.00,45.00 L 161.00,45.00 L 160.00,45.00 L 159.00,44.00 L 159.00,44.00 L 158.00,43.00 L 158.00,43.00 L 157.00,42.00 L 157.00,42.00 L 156.00,41.00 L 156.00,41.00 L 155.00,40.00 L 155.00,40.00 L 154.00,39.00 L 154.00,39.00 L 153.00,38.00 L 153.00,38.00 L 152.00,38.00 L 151.00,37.00 L 151.00,36.00 L 152.00,35.00 L 152.00,35.00 L 152.00,34.00 L 153.00,33.00 L 153.00,33.00 L 154.00,32.00 L 154.00,32.00 L 155.00,31.00 L 155.00,31.00 L 156.00,30.00 L 156.00,30.00 L 157.00,29.00 L 157.00,29.00 L 158.00,28.00 L 158.00,28.00 L 159.00,27.00 L 159.00,27.00 L 160.00,26.00 L 161.00,26.00 L 161.00,26.00 L 162.00,25.00 L 163.00,25.00 L 163.00,25.00 L 164.00,24.00 L 165.00,24.00 L 166.00,24.00 L 167.00,24.00 L 168.00,24.00 L 169.00,24.00 L 170.00,24.00 L 171.00,25.00 L 171.00,25.00 L 172.00,25.00 L 173.00,25.00 L 174.00,26.00 L 174.00,26.00 L 174.00,26.00 L 175.00,25.00 L 175.00,25.00 L 176.00,24.00 L 176.00,24.00 L 177.00,23.00 L 177.00,23.00 L 177.00,22.00 L 178.00,21.00 L 178.00,21.00 L 179.00,20.00 L 179.00,20.00 L 180.00,19.00 L 180.00,19.00 L 181.00,18.00 L 181.00,18.00 L 182.00,17.00 L 182.00,17.00 L 183.00,16.00 L 183.00,16.00 L 184.00,15.00 L 184.00,15.00 L 185.00,14.00 L 186.00,14.00 L 187.00,14.00 L 188.00,14.00 L 189.00,14.00 L 190.00,15.00 L 190.00,15.00 L 191.00,16.00 L 191.00,16.00 L 192.00,17.00 L 192.00,17.00 L 193.00,18.00 L 193.00,18.00 L 194.00,19.00 L 194.00,19.00 L 195.00,19.00 L 196.00,20.00 L 196.00,20.00 L 197.00,21.00 L 197.00,21.00 L 198.00,22.00 L 198.00,22.00 L 199.00,23.00 L 199.00,23.00 L 200.00,24.00 L 200.00,24.00 L 201.00,25.00 L 201.00,26.00 L 201.00,26.00 L 202.00,27.00 L 202.00,28.00 L 202.00,29.00 L 201.00,30.00 L 201.00,30.00 L 201.00,31.00 L 200.00,32.00 L 200.00,32.00 L 199.00,33.00 L 199.00,33.00 L 198.00,34.00 L 198.00,34.00 L 197.00,35.00 L 197.00,35.00 L 197.00,36.00 L 196.00,37.00 L 196.00,37.00 L 195.00,38.00 L 195.00,38.00 L 194.00,39.00 L 194.00,39.00 L 193.00,40.00 L 193.00,40.00 L 192.00,41.00 L 192.00,41.00 L 192.00,42.00 L 192.00,42.00 L 193.00,43.00 L 193.00,44.00 L 193.00,44.00 L 194.00,45.00 L 194.00,46.00 L 194.00,47.00 L 194.00,48.00 L 194.00,49.00 L 194.00,50.00 L 194.00,51.00 L 194.00,52.00 L 194.00,53.00 L 194.00,54.00 L 193.00,55.00 L 193.00,55.00 L 193.00,56.00 L 192.00,57.00 L 192.00,57.00 L 191.00,58.00 L 191.00,58.00 L 191.00,59.00 L 190.00,60.00 L 190.00,60.00 L 189.00,61.00 L 189.00,61.00 L 188.00,62.00 L 188.00,62.00 L 187.00,63.00 L 187.00,63.00 L 186.00,64.00 L 186.00,64.00 L 185.00,65.00 Z M 88.00,172.00 L 87.00,171.00 L 87.00,171.00 L 86.00,171.00 L 85.00,170.00 L 85.00,170.00 L 84.00,169.00 L 84.00,169.00 L 83.00,168.00 L 83.00,168.00 L 82.00,167.00 L 82.00,167.00 L 81.00,166.00 L 81.00,166.00 L 80.00,165.00 L 80.00,165.00 L 79.00,165.00 L 78.00,164.00 L 78.00,164.00 L 77.00,163.00 L 77.00,163.00 L 76.00,162.00 L 76.00,162.00 L 75.00,161.00 L 75.00,161.00 L 74.00,160.00 L 74.00,160.00 L 73.00,159.00 L 73.00,159.00 L 72.00,158.00 L 72.00,158.00 L 71.00,157.00 L 71.00,157.00 L 70.00,157.00 L 69.00,156.00 L 69.00,156.00 L 68.00,155.00 L 68.00,155.00 L 67.00,154.00 L 67.00,154.00 L 66.00,153.00 L 66.00,153.00 L 65.00,152.00 L 65.00,152.00 L 64.00,151.00 L 64.00,151.00 L 63.00,150.00 L 63.00,150.00 L 62.00,150.00 L 61.00,149.00 L 61.00,149.00 L 60.00,148.00 L 60.00,148.00 L 59.00,147.00 L 59.00,147.00 L 58.00,146.00 L 58.00,145.00 L 59.00,144.00 L 59.00,144.00 L 59.00,143.00 L 60.00,142.00 L 60.00,142.00 L 61.00,141.00 L 61.00,141.00 L 62.00,140.00 L 62.00,140.00 L 62.00,139.00 L 63.00,138.00 L 63.00,138.00 L 64.00,137.00 L 64.00,137.00 L 65.00,136.00 L 65.00,136.00 L 65.00,135.00 L 66.00,134.00 L 66.00,134.00 L 67.00,133.00 L 67.00,133.00 L 68.00,132.00 L 68.00,132.00 L 68.00,131.00 L 69.00,130.00 L 69.00,130.00 L 70.00,129.00 L 70.00,129.00 L 71.00,128.00 L 71.00,128.00 L 72.00,127.00 L 72.00,127.00 L 73.00,126.00 L 73.00,126.00 L 73.00,125.00 L 74.00,124.00 L 74.00,124.00 L 75.00,123.00 L 75.00,123.00 L 76.00,122.00 L 76.00,122.00 L 76.00,121.00 L 77.00,120.00 L 77.00,120.00 L 78.00,119.00 L 78.00,119.00 L 79.00,118.00 L 79.00,118.00 L 80.00,117.00 L 80.00,117.00 L 80.00,116.00 L 81.00,115.00 L 81.00,115.00 L 82.00,114.00 L 82.00,114.00 L 83.00,113.00 L 83.00,113.00 L 84.00,112.00 L 84.00,112.00 L 85.00,111.00 L 85.00,111.00 L 86.00,110.00 L 86.00,110.00 L 86.00,109.00 L 87.00,108.00 L 87.00,108.00 L 88.00,107.00 L 88.00,107.00 L 89.00,106.00 L 89.00,106.00 L 90.00,105.00 L 90.00,105.00 L 91.00,104.00 L 91.00,104.00 L 92.00,103.00 L 92.00,103.00 L 92.00,102.00 L 93.00,101.00 L 93.00,101.00 L 94.00,100.00 L 94.00,100.00 L 95.00,99.00 L 95.00,99.00 L 96.00,98.00 L 96.00,98.00 L 97.00,97.00 L 97.00,97.00 L 98.00,96.00 L 98.00,96.00 L 99.00,95.00 L 99.00,95.00 L 99.00,94.00 L 100.00,93.00 L 100.00,93.00 L 101.00,92.00 L 101.00,92.00 L 102.00,91.00 L 102.00,91.00 L 103.00,90.00 L 103.00,90.00 L 104.00,89.00 L 104.00,89.00 L 105.00,88.00 L 105.00,88.00 L 106.00,87.00 L 106.00,87.00 L 106.00,86.00 L 107.00,85.00 L 107.00,85.00 L 108.00,84.00 L 108.00,84.00 L 109.00,83.00 L 109.00,83.00 L 110.00,82.00 L 110.00,82.00 L 111.00,81.00 L 111.00,81.00 L 112.00,80.00 L 112.00,80.00 L 113.00,79.00 L 113.00,79.00 L 113.00,78.00 L 114.00,77.00 L 114.00,77.00 L 115.00,76.00 L 115.00,76.00 L 116.00,75.00 L 116.00,75.00 L 117.00,74.00 L 117.00,74.00 L 118.00,73.00 L 118.00,73.00 L 119.00,72.00 L 119.00,72.00 L 120.00,71.00 L 120.00,71.00 L 121.00,70.00 L 121.00,70.00 L 121.00,69.00 L 122.00,68.00 L 122.00,68.00 L 123.00,67.00 L 123.00,67.00 L 124.00,66.00 L 124.00,66.00 L 125.00,65.00 L 125.00,65.00 L 126.00,64.00 L 126.00,64.00 L 127.00,63.00 L 127.00,63.00 L 128.00,62.00 L 128.00,62.00 L 128.00,61.00 L 129.00,60.00 L 129.00,60.00 L 130.00,59.00 L 130.00,59.00 L 131.00,58.00 L 131.00,58.00 L 132.00,57.00 L 132.00,57.00 L 133.00,56.00 L 133.00,56.00 L 134.00,55.00 L 134.00,55.00 L 135.00,54.00 L 135.00,54.00 L 135.00,53.00 L 136.00,52.00 L 136.00,52.00 L 137.00,51.00 L 137.00,51.00 L 138.00,50.00 L 138.00,50.00 L 139.00,49.00 L 139.00,49.00 L 140.00,48.00 L 140.00,48.00 L 141.00,47.00 L 141.00,47.00 L 142.00,46.00 L 142.00,46.00 L 143.00,45.00 L 144.00,45.00 L 145.00,46.00 L 145.00,46.00 L 146.00,47.00 L 146.00,47.00 L 147.00,48.00 L 147.00,48.00 L 148.00,49.00 L 148.00,49.00 L 149.00,50.00 L 149.00,50.00 L 150.00,51.00 L 150.00,51.00 L 151.00,51.00 L 152.00,52.00 L 152.00,52.00 L 153.00,53.00 L 153.00,53.00 L 154.00,54.00 L 154.00,54.00 L 155.00,55.00 L 155.00,55.00 L 156.00,56.00 L 156.00,56.00 L 157.00,57.00 L 157.00,57.00 L 158.00,58.00 L 158.00,58.00 L 159.00,59.00 L 159.00,59.00 L 160.00,59.00 L 161.00,60.00 L 161.00,60.00 L 162.00,61.00 L 162.00,61.00 L 163.00,62.00 L 163.00,62.00 L 164.00,63.00 L 164.00,63.00 L 165.00,64.00 L 165.00,64.00 L 166.00,65.00 L 166.00,65.00 L 167.00,65.00 L 168.00,66.00 L 168.00,66.00 L 169.00,67.00 L 169.00,67.00 L 170.00,68.00 L 170.00,68.00 L 171.00,69.00 L 171.00,69.00 L 172.00,70.00 L 172.00,70.00 L 173.00,71.00 L 173.00,71.00 L 174.00,72.00 L 174.00,72.00 L 175.00,73.00 L 175.00,73.00 L 176.00,73.00 L 177.00,74.00 L 177.00,74.00 L 178.00,75.00 L 178.00,75.00 L 179.00,76.00 L 179.00,76.00 L 180.00,77.00 L 180.00,77.00 L 181.00,78.00 L 181.00,78.00 L 182.00,79.00 L 182.00,79.00 L 183.00,80.00 L 183.00,80.00 L 184.00,80.00 L 185.00,80.00 L 185.00,80.00 L 186.00,79.00 L 186.00,79.00 L 187.00,78.00 L 187.00,78.00 L 187.00,77.00 L 188.00,76.00 L 188.00,76.00 L 189.00,75.00 L 189.00,75.00 L 190.00,74.00 L 190.00,74.00 L 191.00,73.00 L 192.00,73.00 L 192.00,73.00 L 193.00,72.00 L 194.00,72.00 L 195.00,72.00 L 196.00,72.00 L 197.00,72.00 L 198.00,73.00 L 198.00,73.00 L 199.00,74.00 L 199.00,74.00 L 200.00,75.00 L 200.00,75.00 L 201.00,76.00 L 201.00,77.00 L 201.00,77.00 L 202.00,78.00 L 202.00,79.00 L 201.00,80.00 L 201.00,80.00 L 201.00,81.00 L 201.00,82.00 L 200.00,83.00 L 200.00,83.00 L 199.00,84.00 L 199.00,84.00 L 198.00,85.00 L 198.00,85.00 L 197.00,86.00 L 197.00,86.00 L 196.00,87.00 L 196.00,87.00 L 195.00,88.00 L 195.00,88.00 L 194.00,89.00 L 194.00,89.00 L 194.00,90.00 L 193.00,91.00 L 193.00,91.00 L 192.00,92.00 L 192.00,92.00 L 191.00,93.00 L 191.00,93.00 L 190.00,94.00 L 190.00,94.00 L 189.00,95.00 L 189.00,95.00 L 188.00,96.00 L 188.00,96.00 L 187.00,97.00 L 187.00,97.00 L 186.00,98.00 L 186.00,98.00 L 186.00,99.00 L 185.00,100.00 L 185.00,100.00 L 184.00,101.00 L 184.00,101.00 L 183.00,102.00 L 183.00,102.00 L 182.00,103.00 L 182.00,103.00 L 181.00,104.00 L 181.00,104.00 L 180.00,105.00 L 180.00,105.00 L 180.00,106.00 L 179.00,107.00 L 179.00,107.00 L 178.00,108.00 L 178.00,108.00 L 177.00,109.00 L 177.00,109.00 L 176.00,110.00 L 176.00,110.00 L 175.00,111.00 L 175.00,111.00 L 174.00,112.00 L 174.00,112.00 L 173.00,113.00 L 173.00,113.00 L 172.00,114.00 L 172.00,114.00 L 172.00,115.00 L 171.00,116.00 L 171.00,116.00 L 170.00,117.00 L 170.00,117.00 L 169.00,118.00 L 169.00,118.00 L 168.00,119.00 L 168.00,119.00 L 167.00,120.00 L 167.00,120.00 L 166.00,121.00 L 166.00,121.00 L 165.00,122.00 L 165.00,122.00 L 164.00,123.00 L 164.00,123.00 L 164.00,124.00 L 163.00,125.00 L 163.00,125.00 L 162.00,126.00 L 162.00,126.00 L 161.00,127.00 L 161.00,127.00 L 160.00,128.00 L 160.00,128.00 L 159.00,129.00 L 159.00,129.00 L 158.00,130.00 L 158.00,130.00 L 157.00,131.00 L 156.00,131.00 L 156.00,131.00 L 155.00,132.00 L 154.00,132.00 L 153.00,132.00 L 152.00,131.00 L 152.00,131.00 L 151.00,131.00 L 150.00,130.00 L 150.00,130.00 L 149.00,129.00 L 149.00,129.00 L 148.00,128.00 L 148.00,128.00 L 147.00,127.00 L 147.00,126.00 L 147.00,125.00 L 147.00,124.00 L 148.00,123.00 L 148.00,123.00 L 148.00,122.00 L 149.00,121.00 L 149.00,121.00 L 150.00,120.00 L 150.00,120.00 L 150.00,119.00 L 151.00,118.00 L 151.00,118.00 L 152.00,117.00 L 152.00,117.00 L 153.00,116.00 L 153.00,116.00 L 154.00,115.00 L 154.00,115.00 L 155.00,114.00 L 155.00,114.00 L 156.00,113.00 L 156.00,113.00 L 157.00,112.00 L 157.00,112.00 L 158.00,111.00 L 158.00,111.00 L 158.00,110.00 L 159.00,109.00 L 159.00,109.00 L 160.00,108.00 L 160.00,108.00 L 161.00,107.00 L 161.00,107.00 L 162.00,106.00 L 162.00,106.00 L 163.00,105.00 L 163.00,105.00 L 164.00,104.00 L 164.00,104.00 L 165.00,103.00 L 165.00,103.00 L 166.00,102.00 L 166.00,102.00 L 166.00,101.00 L 167.00,100.00 L 167.00,100.00 L 168.00,99.00 L 168.00,99.00 L 169.00,98.00 L 169.00,98.00 L 170.00,97.00 L 170.00,97.00 L 171.00,96.00 L 171.00,96.00 L 172.00,95.00 L 172.00,95.00 L 173.00,94.00 L 173.00,94.00 L 173.00,93.00 L 174.00,92.00 L 174.00,92.00 L 175.00,91.00 L 175.00,91.00 L 176.00,90.00 L 176.00,90.00 L 176.00,90.00 L 175.00,89.00 L 175.00,89.00 L 174.00,88.00 L 174.00,88.00 L 173.00,88.00 L 172.00,87.00 L 172.00,87.00 L 171.00,86.00 L 171.00,86.00 L 170.00,85.00 L 170.00,85.00 L 169.00,84.00 L 169.00,84.00 L 169.00,84.00 L 168.00,85.00 L 168.00,85.00 L 167.00,86.00 L 167.00,86.00 L 166.00,87.00 L 166.00,87.00 L 165.00,88.00 L 165.00,88.00 L 164.00,89.00 L 164.00,89.00 L 163.00,90.00 L 163.00,90.00 L 162.00,91.00 L 162.00,91.00 L 161.00,92.00 L 161.00,92.00 L 161.00,93.00 L 160.00,94.00 L 160.00,94.00 L 159.00,95.00 L 159.00,95.00 L 158.00,96.00 L 158.00,96.00 L 157.00,97.00 L 157.00,97.00 L 156.00,98.00 L 156.00,98.00 L 155.00,99.00 L 155.00,99.00 L 154.00,100.00 L 154.00,100.00 L 154.00,101.00 L 153.00,102.00 L 153.00,102.00 L 152.00,103.00 L 152.00,103.00 L 151.00,104.00 L 151.00,104.00 L 150.00,105.00 L 150.00,105.00 L 149.00,106.00 L 149.00,106.00 L 148.00,107.00 L 148.00,107.00 L 147.00,108.00 L 147.00,108.00 L 147.00,109.00 L 146.00,110.00 L 146.00,110.00 L 145.00,111.00 L 145.00,111.00 L 144.00,112.00 L 144.00,112.00 L 143.00,113.00 L 143.00,113.00 L 142.00,114.00 L 142.00,114.00 L 141.00,115.00 L 141.00,115.00 L 140.00,116.00 L 140.00,116.00 L 139.00,117.00 L 139.00,117.00 L 139.00,118.00 L 138.00,119.00 L 138.00,119.00 L 137.00,120.00 L 137.00,120.00 L 136.00,121.00 L 136.00,121.00 L 135.00,122.00 L 135.00,122.00 L 134.00,123.00 L 134.00,123.00 L 133.00,124.00 L 133.00,124.00 L 132.00,125.00 L 132.00,125.00 L 132.00,126.00 L 131.00,127.00 L 131.00,127.00 L 130.00,128.00 L 130.00,128.00 L 129.00,129.00 L 129.00,129.00 L 128.00,130.00 L 128.00,130.00 L 127.00,131.00 L 127.00,131.00 L 126.00,132.00 L 126.00,132.00 L 125.00,133.00 L 125.00,133.00 L 124.00,134.00 L 124.00,134.00 L 124.00,135.00 L 123.00,136.00 L 123.00,136.00 L 122.00,137.00 L 122.00,137.00 L 121.00,138.00 L 121.00,138.00 L 120.00,139.00 L 120.00,139.00 L 119.00,140.00 L 119.00,140.00 L 118.00,141.00 L 118.00,141.00 L 117.00,142.00 L 117.00,142.00 L 116.00,143.00 L 116.00,143.00 L 115.00,144.00 L 115.00,144.00 L 114.00,145.00 L 114.00,145.00 L 114.00,146.00 L 113.00,147.00 L 113.00,147.00 L 112.00,148.00 L 112.00,148.00 L 111.00,149.00 L 111.00,149.00 L 110.00,150.00 L 110.00,150.00 L 109.00,151.00 L 109.00,151.00 L 108.00,152.00 L 108.00,152.00 L 107.00,153.00 L 107.00,153.00 L 106.00,154.00 L 106.00,154.00 L 105.00,155.00 L 105.00,155.00 L 104.00,156.00 L 104.00,156.00 L 103.00,157.00 L 103.00,157.00 L 102.00,158.00 L 102.00,158.00 L 101.00,159.00 L 101.00,159.00 L 100.00,160.00 L 100.00,160.00 L 99.00,161.00 L 99.00,161.00 L 98.00,162.00 L 98.00,162.00 L 97.00,163.00 L 97.00,163.00 L 96.00,164.00 L 96.00,164.00 L 95.00,165.00 L 95.00,165.00 L 94.00,166.00 L 94.00,166.00 L 93.00,167.00 L 93.00,167.00 L 92.00,168.00 L 92.00,168.00 L 91.00,169.00 L 91.00,169.00 L 90.00,170.00 L 90.00,170.00 L 89.00,171.00 L 89.00,171.00 L 88.00,172.00 Z M 45.00,197.00 L 44.00,197.00 L 43.00,197.00 L 42.00,196.00 L 42.00,196.00 L 41.00,196.00 L 40.00,195.00 L 40.00,195.00 L 39.00,194.00 L 39.00,193.00 L 39.00,192.00 L 39.00,191.00 L 39.00,190.00 L 39.00,189.00 L 39.00,188.00 L 40.00,187.00 L 40.00,187.00 L 40.00,186.00 L 40.00,185.00 L 41.00,184.00 L 41.00,184.00 L 41.00,183.00 L 41.00,182.00 L 41.00,181.00 L 42.00,180.00 L 42.00,180.00 L 42.00,179.00 L 42.00,178.00 L 43.00,177.00 L 43.00,177.00 L 43.00,176.00 L 44.00,175.00 L 44.00,175.00 L 44.00,174.00 L 44.00,173.00 L 45.00,172.00 L 45.00,172.00 L 45.00,171.00 L 45.00,170.00 L 46.00,169.00 L 46.00,169.00 L 46.00,168.00 L 47.00,167.00 L 47.00,167.00 L 47.00,166.00 L 47.00,165.00 L 48.00,164.00 L 48.00,164.00 L 48.00,163.00 L 49.00,162.00 L 49.00,162.00 L 49.00,161.00 L 49.00,160.00 L 50.00,159.00 L 50.00,159.00 L 50.00,158.00 L 51.00,157.00 L 51.00,157.00 L 52.00,156.00 L 53.00,156.00 L 54.00,157.00 L 54.00,157.00 L 55.00,158.00 L 55.00,158.00 L 56.00,159.00 L 56.00,159.00 L 57.00,160.00 L 57.00,160.00 L 58.00,160.00 L 59.00,161.00 L 59.00,161.00 L 60.00,162.00 L 60.00,162.00 L 61.00,163.00 L 61.00,163.00 L 62.00,164.00 L 62.00,164.00 L 63.00,165.00 L 63.00,165.00 L 64.00,166.00 L 64.00,166.00 L 65.00,167.00 L 65.00,167.00 L 66.00,167.00 L 67.00,168.00 L 67.00,168.00 L 68.00,169.00 L 68.00,169.00 L 69.00,170.00 L 69.00,170.00 L 70.00,171.00 L 70.00,171.00 L 71.00,172.00 L 71.00,172.00 L 72.00,173.00 L 72.00,173.00 L 73.00,174.00 L 73.00,174.00 L 74.00,175.00 L 74.00,175.00 L 75.00,175.00 L 76.00,176.00 L 76.00,176.00 L 77.00,177.00 L 77.00,177.00 L 78.00,178.00 L 78.00,179.00 L 77.00,180.00 L 77.00,180.00 L 76.00,181.00 L 76.00,181.00 L 75.00,182.00 L 74.00,182.00 L 74.00,182.00 L 73.00,183.00 L 72.00,183.00 L 72.00,183.00 L 71.00,184.00 L 70.00,184.00 L 70.00,184.00 L 69.00,185.00 L 68.00,185.00 L 68.00,185.00 L 67.00,186.00 L 67.00,186.00 L 66.00,187.00 L 65.00,187.00 L 65.00,187.00 L 64.00,188.00 L 63.00,188.00 L 63.00,188.00 L 62.00,189.00 L 61.00,189.00 L 61.00,189.00 L 60.00,190.00 L 59.00,190.00 L 59.00,190.00 L 58.00,191.00 L 57.00,191.00 L 57.00,191.00 L 56.00,192.00 L 55.00,192.00 L 55.00,192.00 L 54.00,193.00 L 53.00,193.00 L 52.00,193.00 L 52.00,193.00 L 51.00,194.00 L 50.00,194.00 L 50.00,194.00 L 49.00,195.00 L 48.00,195.00 L 48.00,195.00 L 47.00,196.00 L 46.00,196.00 L 46.00,196.00 L 45.00,197.00 Z M 112.00,239.00 L 111.00,239.00 L 110.00,239.00 L 109.00,239.00 L 108.00,239.00 L 107.00,239.00 L 106.00,239.00 L 105.00,239.00 L 104.00,239.00 L 103.00,238.00 L 103.00,238.00 L 102.00,238.00 L 101.00,237.00 L 101.00,237.00 L 100.00,236.00 L 100.00,236.00 L 99.00,235.00 L 99.00,235.00 L 98.00,234.00 L 98.00,234.00 L 97.00,233.00 L 97.00,233.00 L 96.00,232.00 L 96.00,231.00 L 96.00,231.00 L 95.00,230.00 L 95.00,230.00 L 94.00,229.00 L 94.00,228.00 L 94.00,228.00 L 93.00,227.00 L 93.00,226.00 L 93.00,226.00 L 92.00,225.00 L 92.00,225.00 L 91.00,224.00 L 91.00,223.00 L 91.00,223.00 L 90.00,223.00 L 89.00,223.00 L 88.00,223.00 L 87.00,223.00 L 87.00,223.00 L 86.00,224.00 L 85.00,224.00 L 84.00,224.00 L 84.00,224.00 L 83.00,225.00 L 82.00,225.00 L 82.00,225.00 L 81.00,226.00 L 80.00,226.00 L 79.00,226.00 L 79.00,226.00 L 78.00,227.00 L 77.00,227.00 L 77.00,227.00 L 76.00,228.00 L 75.00,228.00 L 74.00,228.00 L 74.00,228.00 L 73.00,229.00 L 72.00,229.00 L 72.00,229.00 L 71.00,230.00 L 70.00,230.00 L 69.00,230.00 L 69.00,230.00 L 68.00,231.00 L 67.00,231.00 L 66.00,231.00 L 65.00,231.00 L 65.00,231.00 L 64.00,232.00 L 63.00,232.00 L 62.00,232.00 L 61.00,232.00 L 61.00,232.00 L 60.00,233.00 L 59.00,233.00 L 58.00,233.00 L 57.00,233.00 L 56.00,233.00 L 55.00,233.00 L 54.00,233.00 L 53.00,233.00 L 52.00,233.00 L 51.00,233.00 L 50.00,232.00 L 50.00,232.00 L 49.00,232.00 L 48.00,232.00 L 47.00,231.00 L 47.00,231.00 L 46.00,231.00 L 45.00,230.00 L 45.00,230.00 L 44.00,230.00 L 43.00,229.00 L 43.00,229.00 L 42.00,229.00 L 41.00,228.00 L 41.00,228.00 L 40.00,227.00 L 40.00,227.00 L 39.00,226.00 L 39.00,226.00 L 38.00,225.00 L 38.00,225.00 L 37.00,224.00 L 37.00,224.00 L 36.00,223.00 L 36.00,223.00 L 35.00,222.00 L 35.00,222.00 L 34.00,221.00 L 34.00,220.00 L 34.00,220.00 L 33.00,219.00 L 33.00,218.00 L 33.00,217.00 L 33.00,216.00 L 33.00,215.00 L 34.00,214.00 L 34.00,214.00 L 34.00,213.00 L 35.00,212.00 L 35.00,212.00 L 36.00,211.00 L 36.00,211.00 L 37.00,210.00 L 38.00,210.00 L 38.00,210.00 L 39.00,209.00 L 40.00,209.00 L 41.00,209.00 L 42.00,209.00 L 43.00,209.00 L 44.00,210.00 L 44.00,210.00 L 45.00,210.00 L 46.00,211.00 L 46.00,211.00 L 47.00,212.00 L 47.00,212.00 L 48.00,213.00 L 48.00,213.00 L 49.00,214.00 L 49.00,214.00 L 50.00,215.00 L 50.00,215.00 L 51.00,215.00 L 52.00,216.00 L 52.00,216.00 L 53.00,216.00 L 54.00,216.00 L 55.00,217.00 L 55.00,217.00 L 56.00,217.00 L 57.00,217.00 L 57.00,217.00 L 58.00,216.00 L 59.00,216.00 L 60.00,216.00 L 61.00,216.00 L 61.00,216.00 L 62.00,215.00 L 63.00,215.00 L 64.00,215.00 L 64.00,215.00 L 65.00,214.00 L 66.00,214.00 L 67.00,214.00 L 67.00,214.00 L 68.00,213.00 L 69.00,213.00 L 70.00,213.00 L 70.00,213.00 L 71.00,212.00 L 72.00,212.00 L 72.00,212.00 L 73.00,211.00 L 74.00,211.00 L 75.00,211.00 L 75.00,211.00 L 76.00,210.00 L 77.00,210.00 L 77.00,210.00 L 78.00,209.00 L 79.00,209.00 L 79.00,209.00 L 80.00,208.00 L 81.00,208.00 L 82.00,208.00 L 82.00,208.00 L 83.00,207.00 L 84.00,207.00 L 85.00,207.00 L 86.00,207.00 L 86.00,207.00 L 87.00,206.00 L 88.00,206.00 L 89.00,206.00 L 90.00,206.00 L 91.00,206.00 L 92.00,207.00 L 92.00,207.00 L 93.00,207.00 L 94.00,207.00 L 95.00,207.00 L 96.00,208.00 L 96.00,208.00 L 97.00,208.00 L 98.00,209.00 L 98.00,209.00 L 99.00,209.00 L 100.00,210.00 L 100.00,210.00 L 101.00,211.00 L 101.00,211.00 L 102.00,212.00 L 102.00,212.00 L 103.00,213.00 L 103.00,213.00 L 104.00,214.00 L 104.00,214.00 L 105.00,215.00 L 105.00,216.00 L 105.00,216.00 L 106.00,217.00 L 106.00,217.00 L 107.00,218.00 L 107.00,219.00 L 107.00,219.00 L 108.00,220.00 L 108.00,221.00 L 108.00,221.00 L 109.00,222.00 L 109.00,222.00 L 110.00,223.00 L 110.00,223.00 L 110.00,223.00 L 111.00,222.00 L 112.00,222.00 L 112.00,222.00 L 113.00,221.00 L 114.00,221.00 L 114.00,221.00 L 115.00,220.00 L 115.00,220.00 L 116.00,219.00 L 116.00,219.00 L 117.00,218.00 L 117.00,218.00 L 118.00,217.00 L 118.00,217.00 L 119.00,216.00 L 119.00,216.00 L 120.00,215.00 L 120.00,215.00 L 121.00,214.00 L 121.00,214.00 L 122.00,213.00 L 122.00,213.00 L 122.00,212.00 L 123.00,211.00 L 123.00,211.00 L 124.00,210.00 L 124.00,210.00 L 124.00,209.00 L 125.00,208.00 L 125.00,208.00 L 126.00,207.00 L 126.00,207.00 L 126.00,206.00 L 127.00,205.00 L 127.00,205.00 L 127.00,204.00 L 128.00,203.00 L 128.00,203.00 L 129.00,202.00 L 129.00,202.00 L 129.00,201.00 L 130.00,200.00 L 130.00,200.00 L 130.00,199.00 L 131.00,198.00 L 131.00,198.00 L 131.00,197.00 L 132.00,196.00 L 132.00,196.00 L 132.00,195.00 L 132.00,194.00 L 133.00,193.00 L 133.00,193.00 L 133.00,192.00 L 134.00,191.00 L 134.00,191.00 L 134.00,190.00 L 135.00,189.00 L 135.00,189.00 L 136.00,188.00 L 136.00,188.00 L 137.00,187.00 L 138.00,187.00 L 139.00,187.00 L 139.00,187.00 L 140.00,186.00 L 141.00,186.00 L 142.00,187.00 L 142.00,187.00 L 143.00,187.00 L 144.00,187.00 L 145.00,188.00 L 145.00,188.00 L 146.00,189.00 L 146.00,189.00 L 147.00,190.00 L 147.00,190.00 L 148.00,191.00 L 148.00,191.00 L 149.00,192.00 L 149.00,193.00 L 149.00,193.00 L 150.00,194.00 L 150.00,195.00 L 150.00,195.00 L 151.00,196.00 L 151.00,197.00 L 151.00,197.00 L 152.00,198.00 L 152.00,199.00 L 152.00,199.00 L 153.00,200.00 L 153.00,201.00 L 153.00,201.00 L 154.00,202.00 L 154.00,203.00 L 154.00,203.00 L 155.00,204.00 L 155.00,205.00 L 155.00,205.00 L 156.00,206.00 L 156.00,207.00 L 156.00,207.00 L 157.00,208.00 L 157.00,209.00 L 157.00,209.00 L 158.00,210.00 L 158.00,211.00 L 158.00,211.00 L 159.00,212.00 L 159.00,212.00 L 160.00,212.00 L 160.00,212.00 L 161.00,211.00 L 161.00,211.00 L 162.00,210.00 L 162.00,210.00 L 163.00,209.00 L 163.00,209.00 L 164.00,208.00 L 164.00,208.00 L 165.00,207.00 L 165.00,207.00 L 166.00,206.00 L 166.00,206.00 L 167.00,205.00 L 167.00,205.00 L 168.00,204.00 L 168.00,204.00 L 169.00,203.00 L 170.00,203.00 L 170.00,203.00 L 171.00,202.00 L 171.00,202.00 L 172.00,201.00 L 172.00,201.00 L 173.00,200.00 L 174.00,200.00 L 175.00,200.00 L 175.00,200.00 L 176.00,199.00 L 177.00,199.00 L 178.00,199.00 L 179.00,200.00 L 179.00,200.00 L 180.00,200.00 L 181.00,201.00 L 181.00,201.00 L 182.00,201.00 L 183.00,202.00 L 183.00,203.00 L 183.00,203.00 L 184.00,204.00 L 184.00,205.00 L 184.00,205.00 L 185.00,206.00 L 185.00,207.00 L 185.00,208.00 L 185.00,209.00 L 184.00,210.00 L 184.00,210.00 L 184.00,211.00 L 183.00,212.00 L 183.00,212.00 L 182.00,213.00 L 182.00,213.00 L 181.00,214.00 L 181.00,214.00 L 180.00,215.00 L 180.00,215.00 L 179.00,216.00 L 178.00,216.00 L 178.00,216.00 L 177.00,217.00 L 177.00,217.00 L 176.00,218.00 L 176.00,218.00 L 175.00,219.00 L 175.00,219.00 L 174.00,220.00 L 174.00,220.00 L 173.00,221.00 L 173.00,221.00 L 172.00,222.00 L 172.00,222.00 L 171.00,223.00 L 171.00,223.00 L 171.00,224.00 L 170.00,225.00 L 170.00,225.00 L 169.00,226.00 L 169.00,226.00 L 168.00,227.00 L 168.00,227.00 L 168.00,228.00 L 167.00,229.00 L 167.00,229.00 L 166.00,230.00 L 166.00,230.00 L 166.00,231.00 L 165.00,232.00 L 165.00,232.00 L 165.00,233.00 L 164.00,234.00 L 164.00,234.00 L 163.00,235.00 L 162.00,235.00 L 162.00,235.00 L 161.00,236.00 L 160.00,236.00 L 159.00,236.00 L 158.00,236.00 L 157.00,236.00 L 156.00,236.00 L 155.00,235.00 L 155.00,235.00 L 154.00,235.00 L 153.00,234.00 L 153.00,234.00 L 152.00,233.00 L 152.00,233.00 L 151.00,232.00 L 151.00,231.00 L 151.00,231.00 L 150.00,230.00 L 150.00,229.00 L 150.00,229.00 L 149.00,228.00 L 149.00,227.00 L 149.00,227.00 L 148.00,226.00 L 148.00,225.00 L 148.00,225.00 L 147.00,224.00 L 147.00,223.00 L 147.00,223.00 L 146.00,222.00 L 146.00,221.00 L 146.00,221.00 L 145.00,220.00 L 145.00,219.00 L 145.00,219.00 L 144.00,218.00 L 144.00,218.00 L 143.00,217.00 L 143.00,216.00 L 143.00,216.00 L 142.00,215.00 L 142.00,214.00 L 142.00,214.00 L 141.00,213.00 L 141.00,213.00 L 141.00,213.00 L 140.00,214.00 L 140.00,214.00 L 140.00,215.00 L 139.00,216.00 L 139.00,216.00 L 138.00,217.00 L 138.00,217.00 L 138.00,218.00 L 137.00,219.00 L 137.00,219.00 L 136.00,220.00 L 136.00,220.00 L 136.00,221.00 L 135.00,222.00 L 135.00,222.00 L 134.00,223.00 L 134.00,223.00 L 133.00,224.00 L 133.00,224.00 L 133.00,225.00 L 132.00,226.00 L 132.00,226.00 L 131.00,227.00 L 131.00,227.00 L 130.00,228.00 L 130.00,228.00 L 129.00,229.00 L 129.00,229.00 L 128.00,230.00 L 127.00,230.00 L 127.00,230.00 L 126.00,231.00 L 126.00,231.00 L 125.00,232.00 L 125.00,232.00 L 124.00,233.00 L 124.00,233.00 L 123.00,234.00 L 122.00,234.00 L 122.00,234.00 L 121.00,235.00 L 121.00,235.00 L 120.00,236.00 L 119.00,236.00 L 119.00,236.00 L 118.00,237.00 L 117.00,237.00 L 117.00,237.00 L 116.00,238.00 L 115.00,238.00 L 114.00,238.00 L 113.00,238.00 L 113.00,238.00 L 112.00,239.00 Z" />
  </g>

  </g>
</svg>